<svg width="25" height="24" viewBox="0 0 25 24" fill="none" xmlns="http://www.w3.org/2000/svg">
    <path d="M12.5 9.12988V13.5251" stroke="currentColor" stroke-width="2" stroke-linecap="round"
        stroke-linejoin="round"></path>
    <path
        d="M10.9831 2.09807L1.31367 18.7999C1.15963 19.0667 1.0784 19.3693 1.07813 19.6774C1.07785 19.9855 1.15854 20.2882 1.31212 20.5553C1.46569 20.8224 1.68675 21.0444 1.95315 21.1992C2.21955 21.3539 2.52194 21.4359 2.83002 21.437H22.169C22.4771 21.4359 22.7795 21.3539 23.0459 21.1992C23.3123 21.0444 23.5333 20.8224 23.6869 20.5553C23.8405 20.2882 23.9211 19.9855 23.9209 19.6774C23.9206 19.3693 23.8394 19.0667 23.6853 18.7999L14.0159 2.09807C13.863 1.83092 13.6422 1.6089 13.3759 1.45448C13.1097 1.30007 12.8073 1.21875 12.4995 1.21875C12.1917 1.21875 11.8893 1.30007 11.6231 1.45448C11.3568 1.6089 11.136 1.83092 10.9831 2.09807Z"
        stroke="currentColor" stroke-width="2" stroke-linecap="round" stroke-linejoin="round"></path>
    <path
        d="M12.5002 18.8002C13.2284 18.8002 13.8188 18.2099 13.8188 17.4817C13.8188 16.7534 13.2284 16.1631 12.5002 16.1631C11.772 16.1631 11.1816 16.7534 11.1816 17.4817C11.1816 18.2099 11.772 18.8002 12.5002 18.8002Z"
        fill="currentColor"></path>
</svg>