<svg width="25" height="25" viewBox="0 0 25 25" fill="none" xmlns="http://www.w3.org/2000/svg">
    <g clip-path="url(#clip0_1720_8)">
        <path
            d="M12.9917 19.6461L18.6167 23.2175C19.3421 23.6751 20.235 22.9943 20.0229 22.1573L18.3934 15.751C18.3494 15.5734 18.3564 15.387 18.4137 15.2133C18.4709 15.0395 18.5761 14.8854 18.7171 14.7689L23.7617 10.5613C24.4202 10.0144 24.0854 8.90949 23.226 8.85368L16.6412 8.42958C16.4615 8.41912 16.2888 8.35656 16.1441 8.24953C15.9994 8.1425 15.8891 7.99564 15.8265 7.8269L13.3711 1.64386C13.3061 1.46518 13.1877 1.31083 13.032 1.20176C12.8762 1.09269 12.6907 1.03418 12.5006 1.03418C12.3105 1.03418 12.1249 1.09269 11.9692 1.20176C11.8135 1.31083 11.695 1.46518 11.6301 1.64386L9.1747 7.8269C9.11212 7.99564 9.00174 8.1425 8.85705 8.24953C8.71236 8.35656 8.53963 8.41912 8.35996 8.42958L1.77514 8.85368C0.915767 8.90949 0.580945 10.0144 1.23943 10.5613L6.28407 14.7689C6.42507 14.8854 6.53026 15.0395 6.58752 15.2133C6.64479 15.387 6.65179 15.5734 6.60773 15.751L5.10103 21.6885C4.84434 22.693 5.91577 23.5077 6.77514 22.9608L12.0095 19.6461C12.1563 19.5528 12.3266 19.5032 12.5006 19.5032C12.6745 19.5032 12.8449 19.5528 12.9917 19.6461Z"
            stroke="currentColor" stroke-width="2" stroke-linecap="round" stroke-linejoin="round"></path>
    </g>
    <defs>
        <clipPath id="clip0_1720_8">
            <rect width="25" height="24.4048" fill="white"></rect>
        </clipPath>
    </defs>
</svg>