<svg
                  width="25"
                  height="29"
                  viewBox="0 0 25 29"
                  fill="none"
                  xmlns="http://www.w3.org/2000/svg"
                >
                  <path
                    d="M4.03811 10.7116C4.03647 9.54375 4.26589 8.38712 4.71317 7.30832C5.16045 6.22953 5.81674 5.24988 6.64424 4.42581C7.47174 3.60174 8.45411 2.94953 9.53476 2.50674C10.6154 2.06396 11.773 1.83934 12.9408 1.84584C17.817 1.88278 21.7203 5.93394 21.7203 10.8224V11.6967C21.7203 16.1049 22.6439 18.6661 23.4566 20.0699C23.5429 20.2194 23.5884 20.3889 23.5885 20.5616C23.5887 20.7342 23.5435 20.9038 23.4574 21.0535C23.3714 21.2031 23.2475 21.3275 23.0982 21.4142C22.949 21.5009 22.7795 21.5469 22.6069 21.5475H3.15154C2.97891 21.5469 2.80948 21.5009 2.66021 21.4142C2.51094 21.3275 2.38708 21.2031 2.30103 21.0535C2.21498 20.9038 2.16977 20.7342 2.16992 20.5616C2.17008 20.3889 2.21559 20.2194 2.3019 20.0699C3.11459 18.6661 4.03811 16.1049 4.03811 11.6967V10.7116Z"
                    stroke="currentColor"
                    stroke-width="2"
                    stroke-linecap="round"
                    stroke-linejoin="round"
                  ></path>
                  <path
                    d="M8.9375 21.5469V22.532C8.9375 23.577 9.35264 24.5792 10.0916 25.3182C10.8306 26.0571 11.8328 26.4723 12.8778 26.4723C13.9229 26.4723 14.9251 26.0571 15.6641 25.3182C16.403 24.5792 16.8182 23.577 16.8182 22.532V21.5469"
                    stroke="currentColor"
                    stroke-width="2"
                    stroke-linecap="round"
                    stroke-linejoin="round"
                  ></path>
                </svg>